<?xml version="1.0" encoding="utf-8"?>
<!-- Generator: Adobe Illustrator 25.3.1, SVG Export Plug-In . SVG Version: 6.00 Build 0)  -->
<svg version="1.1" id="Layer_1" xmlns="http://www.w3.org/2000/svg" xmlns:xlink="http://www.w3.org/1999/xlink" x="0px" y="0px"
	 viewBox="0 0 100 100" style="enable-background:new 0 0 100 100;" xml:space="preserve">
<style type="text/css">
	.st0{fill:#FFD44C;}
</style>
<g>
	<g>
		<polygon class="st0" points="49.47,20.09 39.43,10.05 49.46,0 59.51,10.05 		"/>
		<path class="st0" d="M76.46,47.08L66.42,37.04l10.03-10.05L86.5,37.04L76.46,47.08z M62.97,33.58L52.93,23.54l10.03-10.05
			l10.05,10.05L62.97,33.58z"/>
		<polygon class="st0" points="89.96,60.57 79.92,50.53 89.95,40.49 100,50.53 		"/>
	</g>
	<g>
		<polygon class="st0" points="36.33,33.23 26.29,23.19 36.32,13.14 46.37,23.19 		"/>
		<path class="st0" d="M63.33,60.23L53.29,50.19l10.03-10.05l10.05,10.05L63.33,60.23z M49.83,46.73L39.79,36.69l10.03-10.05
			l10.05,10.05L49.83,46.73z"/>
		<polygon class="st0" points="76.82,73.72 66.78,63.68 76.81,53.63 86.86,63.68 		"/>
	</g>
	<g>
		<polygon class="st0" points="23.19,46.37 13.15,36.33 23.18,26.28 33.23,36.33 		"/>
		<path class="st0" d="M50.18,73.37L40.14,63.33l10.03-10.05l10.05,10.05L50.18,73.37z M36.68,59.87L26.64,49.83l10.03-10.05
			l10.05,10.05L36.68,59.87z"/>
		<polygon class="st0" points="63.67,86.86 53.63,76.82 63.67,66.77 73.71,76.82 		"/>
	</g>
	<g>
		<polygon class="st0" points="10.04,59.51 0,49.47 10.04,39.43 20.08,49.47 		"/>
		<path class="st0" d="M37.04,86.51L27,76.47l10.03-10.05l10.05,10.05L37.04,86.51z M23.54,73.01L13.5,62.97l10.03-10.05
			l10.05,10.05L23.54,73.01z"/>
		<polygon class="st0" points="50.53,100 40.49,89.96 50.53,79.91 60.57,89.96 		"/>
	</g>
</g>
</svg>
